<?xml version="1.0" encoding="UTF-8"?><svg xmlns="http://www.w3.org/2000/svg" viewBox="0 0 24 24"><g id="a"/><g id="b"/><g id="c"/><g id="d"/><g id="e"/><g id="f"/><g id="g"/><g id="h"/><g id="i"/><g id="j"/><g id="k"/><g id="l"/><g id="m"/><g id="n"/><g id="o"/><g id="p"/><g id="q"/><g id="r"/><g id="s"><g><rect x="9.75" y="9.75" width="4.5" height="4.5" rx=".25" ry=".25"/><path d="M21,12.75c.41,0,.75-.34,.75-.75s-.34-.75-.75-.75h-2.25v-1.5h2.25c.41,0,.75-.34,.75-.75s-.34-.75-.75-.75h-2.25v-.25c0-1.52-1.23-2.75-2.75-2.75h-.25V3c0-.41-.34-.75-.75-.75s-.75,.34-.75,.75v2.25h-1.5V3c0-.41-.34-.75-.75-.75s-.75,.34-.75,.75v2.25h-1.5V3c0-.41-.34-.75-.75-.75s-.75,.34-.75,.75v2.25h-.25c-1.52,0-2.75,1.23-2.75,2.75v.25H3c-.41,0-.75,.34-.75,.75s.34,.75,.75,.75h2.25v1.5H3c-.41,0-.75,.34-.75,.75s.34,.75,.75,.75h2.25v1.5H3c-.41,0-.75,.34-.75,.75s.34,.75,.75,.75h2.25v.25c0,1.52,1.23,2.75,2.75,2.75h.25v2.25c0,.41,.34,.75,.75,.75s.75-.34,.75-.75v-2.25h1.5v2.25c0,.41,.34,.75,.75,.75s.75-.34,.75-.75v-2.25h1.5v2.25c0,.41,.34,.75,.75,.75s.75-.34,.75-.75v-2.25h.25c1.52,0,2.75-1.23,2.75-2.75v-.25h2.25c.41,0,.75-.34,.75-.75s-.34-.75-.75-.75h-2.25v-1.5h2.25Zm-5.25,1.25c0,.96-.79,1.75-1.75,1.75h-4c-.96,0-1.75-.79-1.75-1.75v-4c0-.96,.79-1.75,1.75-1.75h4c.96,0,1.75,.79,1.75,1.75v4Z"/></g></g><g id="t"/><g id="u"/></svg>