<?xml version="1.0" encoding="UTF-8"?><svg xmlns="http://www.w3.org/2000/svg" viewBox="0 0 24 24"><g id="a"/><g id="b"/><g id="c"/><g id="d"><g><circle cx="12" cy="12" r="1.25"/><path d="M9.46,10.95c.35-.86,1.13-1.49,2.06-1.65-.02-.35-.08-.68-.21-1-.25-.59-.64-.98-.99-1.24-2.03,.69-3.5,2.58-3.55,4.82,.27-.21,.58-.41,.94-.56,.56-.24,1.15-.36,1.75-.36Z"/><path d="M13.05,9.46c.86,.36,1.49,1.14,1.65,2.08,.35-.02,.68-.09,1-.23,.59-.25,.98-.64,1.24-.99-.69-2.03-2.58-3.5-4.82-3.56,.21,.27,.41,.57,.56,.94,.24,.56,.36,1.15,.36,1.76Z"/><path d="M10.95,14.54c-.86-.36-1.49-1.14-1.65-2.08-.35,.02-.68,.09-1,.23-.59,.25-.98,.64-1.24,.99,.69,2.03,2.58,3.5,4.82,3.56-.21-.27-.41-.57-.56-.94-.24-.56-.36-1.15-.36-1.76Z"/><path d="M17,2.25H7c-2.62,0-4.75,2.13-4.75,4.75v10c0,2.62,2.13,4.75,4.75,4.75h10c2.62,0,4.75-2.13,4.75-4.75V7c0-2.62-2.13-4.75-4.75-4.75Zm-5,16.5c-3.1,0-5.71-2.1-6.5-4.95,0-.02-.01-.04-.02-.06-.15-.55-.23-1.13-.23-1.74,0-3.1,2.1-5.71,4.95-6.5,.02,0,.04-.01,.06-.02,.56-.15,1.14-.24,1.74-.24,3.1,0,5.71,2.1,6.5,4.95,0,.02,.01,.04,.02,.06,.15,.56,.24,1.14,.24,1.74,0,3.72-3.03,6.75-6.75,6.75Z"/><path d="M14.54,13.05c-.35,.85-1.13,1.49-2.06,1.65,.02,.35,.08,.68,.21,1,.25,.59,.64,.98,.99,1.24,2.03-.69,3.5-2.58,3.55-4.82-.27,.21-.57,.41-.94,.56-.56,.24-1.15,.36-1.76,.36Z"/></g></g><g id="e"/><g id="f"/><g id="g"/><g id="h"/><g id="i"/><g id="j"/><g id="k"/><g id="l"/><g id="m"/><g id="n"/><g id="o"/><g id="p"/><g id="q"/><g id="r"/><g id="s"/><g id="t"/><g id="u"/></svg>