<?xml version="1.0" encoding="UTF-8"?><svg xmlns="http://www.w3.org/2000/svg" viewBox="0 0 24 24"><g id="a"/><g id="b"/><g id="c"/><g id="d"/><g id="e"/><g id="f"/><g id="g"/><g id="h"><g><path d="M13.92,12c0-1.06-.86-1.92-1.92-1.92-.96,0-1.76,.72-1.89,1.64,0,0,0,.02,0,.03,0,0,0,.01,0,.02,0,.08-.02,.15-.02,.23,0,.97,.72,1.76,1.66,1.89,0,0,0,0,.01,0h0c.08,.01,.16,.03,.24,.03,.97,0,1.76-.72,1.89-1.65,0,0,0-.01,0-.02h0c0-.09,.02-.17,.02-.25Z"/><path d="M4.19,8.08c-.6,1.18-.94,2.51-.94,3.92,0,.68,.08,1.33,.23,1.96l.18-.27c.43-.72,1.27-1.76,2.71-2.38,.77-.33,1.58-.48,2.42-.45,.43-1.21,1.53-2.1,2.86-2.24,0-.58-.11-1.13-.34-1.66-.46-1.07-1.23-1.69-1.8-2.03l-1.32-.79s-.07,.03-.1,.05l-1.13-1.13c-1.07-1.07-2.82-1.07-3.89,0s-1.07,2.82,0,3.89l1.13,1.13Z"/><path d="M12.69,6.37c.33,.77,.48,1.58,.45,2.42,1.21,.43,2.1,1.53,2.24,2.86,.57,0,1.13-.11,1.66-.34,1.07-.46,1.69-1.23,2.03-1.8l.82-1.25c-.03-.06-.05-.12-.08-.18l1.13-1.13c1.07-1.07,1.07-2.82,0-3.89s-2.82-1.07-3.89,0l-1.13,1.13c-1.18-.6-2.51-.94-3.92-.94-.69,0-1.35,.08-1.99,.24l.26,.15c.76,.45,1.8,1.29,2.42,2.73Z"/><path d="M19.81,15.92c.6-1.18,.94-2.51,.94-3.92,0-.68-.08-1.33-.23-1.97l-.18,.27c-.43,.73-1.28,1.77-2.71,2.39-.72,.31-1.47,.46-2.25,.46-.06,0-.11-.01-.17-.01-.43,1.21-1.53,2.1-2.86,2.24,0,.57,.11,1.13,.34,1.66,.46,1.06,1.23,1.69,1.8,2.03l1.25,.82c.06-.03,.12-.05,.18-.08l1.13,1.13c.54,.54,1.24,.8,1.94,.8s1.41-.27,1.94-.8c1.07-1.07,1.07-2.82,0-3.89l-1.13-1.13Z"/><path d="M11.31,17.63c-.33-.77-.48-1.58-.45-2.42-1.21-.43-2.1-1.53-2.24-2.85-.57,0-1.13,.11-1.66,.34-1.07,.46-1.69,1.23-2.03,1.8l-.83,1.22c.03,.07,.06,.14,.09,.21l-1.13,1.13c-1.07,1.07-1.07,2.82,0,3.89,.54,.54,1.24,.8,1.94,.8s1.41-.27,1.94-.8l1.13-1.13c1.18,.6,2.51,.94,3.92,.94,.68,0,1.33-.08,1.97-.23l-.27-.18c-.73-.43-1.77-1.28-2.39-2.71Z"/></g></g><g id="i"/><g id="j"/><g id="k"/><g id="l"/><g id="m"/><g id="n"/><g id="o"/><g id="p"/><g id="q"/><g id="r"/><g id="s"/><g id="t"/><g id="u"/></svg>