<?xml version="1.0" encoding="UTF-8"?><svg xmlns="http://www.w3.org/2000/svg" viewBox="0 0 24 24"><g id="a"/><g id="b"/><g id="c"/><g id="d"/><g id="e"><g><path d="M21,11.75s.03,0,.04,0l-1.65-4.94c-.51-1.53-1.94-2.56-3.56-2.56h-7.68c-1.62,0-3.05,1.03-3.56,2.56l-1.65,4.94s.03,0,.04,0H21Z"/><path d="M21,13.25H3c-.41,0-.75,.34-.75,.75v3c0,2.07,1.68,3.75,3.75,3.75h12c2.07,0,3.75-1.68,3.75-3.75v-3c0-.41-.34-.75-.75-.75Zm-11,4.5H6c-.41,0-.75-.34-.75-.75s.34-.75,.75-.75h4c.41,0,.75,.34,.75,.75s-.34,.75-.75,.75Z"/></g></g><g id="f"/><g id="g"/><g id="h"/><g id="i"/><g id="j"/><g id="k"/><g id="l"/><g id="m"/><g id="n"/><g id="o"/><g id="p"/><g id="q"/><g id="r"/><g id="s"/><g id="t"/><g id="u"/></svg>