<?xml version="1.0" encoding="UTF-8"?><svg xmlns="http://www.w3.org/2000/svg" viewBox="0 0 24 24"><g id="a"/><g id="b"/><g id="c"/><g id="d"/><g id="e"/><g id="f"/><g id="g"/><g id="h"/><g id="i"/><g id="j"/><g id="k"/><g id="l"><g><path d="M15.72,10.75h-7.44c-.11,0-.17,.06-.2,.1-.03,.04-.07,.11-.05,.22l.5,2c.03,.11,.13,.19,.24,.19h6.44c.12,0,.21-.08,.24-.19l.5-2c.03-.1-.02-.18-.05-.21-.03-.04-.09-.1-.2-.1Z"/><path d="M19,6.25H5c-1.52,0-2.75,1.23-2.75,2.75v6c0,1.52,1.23,2.75,2.75,2.75h14c1.52,0,2.75-1.23,2.75-2.75v-6c0-1.52-1.23-2.75-2.75-2.75Zm-1.58,5.17l-.5,2c-.2,.78-.89,1.33-1.7,1.33h-6.44c-.8,0-1.5-.54-1.7-1.33l-.5-2c-.13-.53-.01-1.08,.32-1.5s.84-.67,1.38-.67h7.44c.54,0,1.04,.25,1.38,.67s.45,.97,.32,1.5Z"/></g></g><g id="m"/><g id="n"/><g id="o"/><g id="p"/><g id="q"/><g id="r"/><g id="s"/><g id="t"/><g id="u"/></svg>