<?xml version="1.0" encoding="UTF-8"?><svg xmlns="http://www.w3.org/2000/svg" viewBox="0 0 24 24"><g id="a"/><g id="b"/><g id="c"/><g id="d"/><g id="e"/><g id="f"/><g id="g"/><g id="h"/><g id="i"/><g id="j"/><g id="k"/><g id="l"/><g id="m"/><g id="n"/><g id="o"><g><path d="M15.25,6V2.25h-2.5V6.25h2.25c.14,0,.25-.11,.25-.25Z"/><rect x="8.75" y="10.75" width="6.5" height="6.5" rx=".25" ry=".25"/><path d="M9,6.25h2.25V2.25h-2.5v3.75c0,.14,.11,.25,.25,.25Z"/><path d="M17,2.25h-.25v3.75c0,.96-.79,1.75-1.75,1.75h-6c-.96,0-1.75-.79-1.75-1.75V2.25h-.25c-1.52,0-2.75,1.23-2.75,2.75v14c0,1.52,1.23,2.75,2.75,2.75h10c1.52,0,2.75-1.23,2.75-2.75V5c0-1.52-1.23-2.75-2.75-2.75Zm-.25,14.75c0,.96-.79,1.75-1.75,1.75h-6c-.96,0-1.75-.79-1.75-1.75v-6c0-.96,.79-1.75,1.75-1.75h6c.96,0,1.75,.79,1.75,1.75v6Z"/></g></g><g id="p"/><g id="q"/><g id="r"/><g id="s"/><g id="t"/><g id="u"/></svg>