<?xml version="1.0" encoding="UTF-8"?><svg xmlns="http://www.w3.org/2000/svg" viewBox="0 0 24 24"><g id="a"/><g id="b"/><g id="c"/><g id="d"/><g id="e"/><g id="f"/><g id="g"/><g id="h"/><g id="i"/><g id="j"/><g id="k"/><g id="l"/><g id="m"/><g id="n"/><g id="o"/><g id="p"/><g id="q"/><g id="r"/><g id="s"/><g id="t"><g><path d="M21.47,4.41c-.18-.14-.41-.2-.63-.15-5.79,1.3-11.88,1.3-17.67,0-.22-.05-.46,0-.63,.15-.18,.14-.28,.36-.28,.59v12c0,.23,.1,.44,.28,.59,.18,.14,.41,.2,.63,.15,5.79-1.3,11.88-1.3,17.67,0,.05,.01,.11,.02,.16,.02,.17,0,.33-.06,.47-.16,.18-.14,.28-.36,.28-.59V5c0-.23-.1-.44-.28-.59Z"/><path d="M12,18.25c-1.53,0-3.06,.1-4.57,.28-.11,.13-.18,.29-.18,.47,0,.41,.34,.75,.75,.75h8c.41,0,.75-.34,.75-.75,0-.18-.07-.34-.18-.47-1.51-.18-3.04-.28-4.57-.28Z"/></g></g><g id="u"/></svg>