<?xml version="1.0" encoding="UTF-8"?><svg xmlns="http://www.w3.org/2000/svg" viewBox="0 0 24 24"><g id="a"/><g id="b"/><g id="c"/><g id="d"/><g id="e"/><g id="f"/><g id="g"/><g id="h"/><g id="i"/><g id="j"/><g id="k"/><g id="l"/><g id="m"/><g id="n"/><g id="o"/><g id="p"/><g id="q"><path d="M17.93,3.48l-2.03-1.22c-.55-.33-1.21-.34-1.76-.02-.56,.31-.89,.88-.89,1.52v1.07c-.81-.28-1.69-.27-2.5,0v-1.08c0-.64-.33-1.21-.89-1.52-.56-.32-1.22-.31-1.76,.02l-2.03,1.22c-1.12,.67-1.82,1.91-1.82,3.22v7.3c0,4.27,3.48,7.75,7.75,7.75s7.75-3.48,7.75-7.75V6.7c0-1.31-.7-2.54-1.82-3.22Zm-4.68,3.02v1.5c0,.69-.56,1.25-1.25,1.25s-1.25-.56-1.25-1.25v-1.5c.74-.5,1.76-.49,2.5,0Zm-.25,11.25h-2c-.41,0-.75-.34-.75-.75s.34-.75,.75-.75h2c.41,0,.75,.34,.75,.75s-.34,.75-.75,.75Z"/></g><g id="r"/><g id="s"/><g id="t"/><g id="u"/></svg>