<?xml version="1.0" encoding="UTF-8"?><svg xmlns="http://www.w3.org/2000/svg" viewBox="0 0 24 24"><g id="a"/><g id="b"/><g id="c"/><g id="d"/><g id="e"/><g id="f"/><g id="g"/><g id="h"/><g id="i"/><g id="j"/><g id="k"/><g id="l"/><g id="m"/><g id="n"/><g id="o"/><g id="p"><g><rect x="9.75" y="9.75" width="4.5" height="4.5" rx="1.25" ry="1.25"/><path d="M17,2.25H7c-2.62,0-4.75,2.13-4.75,4.75v10c0,2.62,2.13,4.75,4.75,4.75h10c2.62,0,4.75-2.13,4.75-4.75V7c0-2.62-2.13-4.75-4.75-4.75ZM6.02,15.75c-.41,0-.75-.34-.75-.75s.33-.75,.74-.75h.01c.41,0,.75,.34,.75,.75s-.34,.75-.75,.75Zm0-6c-.41,0-.75-.34-.75-.75s.33-.75,.74-.75h.01c.41,0,.75,.34,.75,.75s-.34,.75-.75,.75Zm2.99-4.5h.01c.41,0,.75,.34,.75,.75s-.34,.75-.75,.75-.75-.34-.75-.75,.33-.75,.74-.75Zm.01,13.5c-.41,0-.75-.34-.75-.75s.33-.75,.74-.75h.01c.41,0,.75,.34,.75,.75s-.34,.75-.75,.75Zm1.98-3c-1.52,0-2.75-1.23-2.75-2.75v-2c0-1.52,1.23-2.75,2.75-2.75h2c1.52,0,2.75,1.23,2.75,2.75v2c0,1.52-1.23,2.75-2.75,2.75h-2Zm4.02,3c-.41,0-.75-.34-.75-.75s.33-.75,.74-.75h.01c.41,0,.75,.34,.75,.75s-.34,.75-.75,.75Zm0-12c-.41,0-.75-.34-.75-.75s.33-.75,.74-.75h.01c.41,0,.75,.34,.75,.75s-.34,.75-.75,.75Zm3,9c-.41,0-.75-.34-.75-.75s.33-.75,.74-.75h.01c.41,0,.75,.34,.75,.75s-.34,.75-.75,.75Zm0-6c-.41,0-.75-.34-.75-.75s.33-.75,.74-.75h.01c.41,0,.75,.34,.75,.75s-.34,.75-.75,.75Z"/></g></g><g id="q"/><g id="r"/><g id="s"/><g id="t"/><g id="u"/></svg>