<?xml version="1.0" encoding="UTF-8"?><svg xmlns="http://www.w3.org/2000/svg" viewBox="0 0 24 24"><g id="a"/><g id="b"/><g id="c"/><g id="d"/><g id="e"/><g id="f"/><g id="g"/><g id="h"/><g id="i"/><g id="j"><g><path d="M9,18.25H4c-.41,0-.75,.34-.75,.75s.34,.75,.75,.75h5c.41,0,.75-.34,.75-.75s-.34-.75-.75-.75Z"/><path d="M20,18.25h-7c-.41,0-.75,.34-.75,.75s.34,.75,.75,.75h7c.41,0,.75-.34,.75-.75s-.34-.75-.75-.75Z"/><path d="M20,7.25H4c-.96,0-1.75,.79-1.75,1.75v6c0,.96,.79,1.75,1.75,1.75H20c.96,0,1.75-.79,1.75-1.75v-6c0-.96-.79-1.75-1.75-1.75ZM6.75,13c0,.41-.34,.75-.75,.75s-.75-.34-.75-.75v-2c0-.41,.34-.75,.75-.75s.75,.34,.75,.75v2Zm3,0c0,.41-.34,.75-.75,.75s-.75-.34-.75-.75v-2c0-.41,.34-.75,.75-.75s.75,.34,.75,.75v2Zm3,0c0,.41-.34,.75-.75,.75s-.75-.34-.75-.75v-2c0-.41,.34-.75,.75-.75s.75,.34,.75,.75v2Zm2.94-1.71c-.03,.09-.09,.17-.16,.24-.14,.14-.33,.22-.53,.22s-.39-.08-.53-.22c-.07-.07-.13-.15-.16-.24-.04-.09-.06-.19-.06-.29s.02-.2,.06-.29c.04-.09,.09-.17,.16-.24,.21-.21,.54-.28,.82-.16,.09,.04,.17,.09,.24,.16s.12,.15,.16,.24,.06,.19,.06,.29-.02,.2-.06,.29Zm3,0c-.03,.09-.09,.17-.16,.24-.14,.14-.33,.22-.53,.22-.1,0-.2-.02-.29-.06-.09-.03-.17-.09-.24-.16-.07-.07-.13-.15-.16-.24-.04-.09-.06-.19-.06-.29s.02-.2,.06-.29c.04-.09,.09-.17,.16-.24,.21-.21,.54-.28,.82-.16,.09,.04,.17,.09,.24,.16s.13,.15,.16,.24c.04,.09,.06,.19,.06,.29s-.02,.2-.06,.29Z"/></g></g><g id="k"/><g id="l"/><g id="m"/><g id="n"/><g id="o"/><g id="p"/><g id="q"/><g id="r"/><g id="s"/><g id="t"/><g id="u"/></svg>