<?xml version="1.0" encoding="UTF-8"?><svg xmlns="http://www.w3.org/2000/svg" viewBox="0 0 24 24"><g id="a"/><g id="b"/><g id="c"/><g id="d"/><g id="e"/><g id="f"/><g id="g"/><g id="h"/><g id="i"/><g id="j"/><g id="k"/><g id="l"/><g id="m"/><g id="n"/><g id="o"/><g id="p"/><g id="q"/><g id="r"/><g id="s"/><g id="t"/><g id="u"><g><path d="M15,15.75H7c-.14,0-.25,.11-.25,.25v5.75H15.25v-5.75c0-.14-.11-.25-.25-.25Z"/><path d="M7,7.25h5c.14,0,.25-.11,.25-.25V2.25H6.75V7c0,.14,.11,.25,.25,.25Z"/><path d="M19.94,6.88l-3.83-3.83c-.52-.52-1.21-.81-1.94-.81h-.42V7c0,.96-.79,1.75-1.75,1.75H7c-.96,0-1.75-.79-1.75-1.75V2.25h-.25c-1.52,0-2.75,1.23-2.75,2.75v14c0,1.52,1.23,2.75,2.75,2.75h.25v-5.75c0-.96,.79-1.75,1.75-1.75H15c.96,0,1.75,.79,1.75,1.75v5.75h1.25c1.52,0,2.75-1.23,2.75-2.75V8.83c0-.73-.29-1.43-.81-1.94Z"/></g></g></svg>