<?xml version="1.0" encoding="UTF-8"?><svg xmlns="http://www.w3.org/2000/svg" viewBox="0 0 24 24"><g id="a"/><g id="b"/><g id="c"/><g id="d"/><g id="e"/><g id="f"><g><rect x="7.25" y="7.25" width="9.5" height="8.5" rx="1.75" ry="1.75"/><path d="M15,5.75c.26,0,.51,.04,.75,.1V3.5c0-.69-.56-1.25-1.25-1.25h-5c-.69,0-1.25,.56-1.25,1.25v2.35c.24-.06,.49-.1,.75-.1h6Z"/><path d="M9,17.25s-.03,0-.04,0l.1,.31c.24,.72,.91,1.2,1.66,1.2h.53v2.25c0,.41,.34,.75,.75,.75s.75-.34,.75-.75v-2.25h.53c.75,0,1.42-.48,1.66-1.2l.1-.31s-.03,0-.04,0h-6Z"/></g></g><g id="g"/><g id="h"/><g id="i"/><g id="j"/><g id="k"/><g id="l"/><g id="m"/><g id="n"/><g id="o"/><g id="p"/><g id="q"/><g id="r"/><g id="s"/><g id="t"/><g id="u"/></svg>