<?xml version="1.0" encoding="UTF-8"?><svg xmlns="http://www.w3.org/2000/svg" viewBox="0 0 24 24"><g id="a"/><g id="b"/><g id="c"/><g id="d"/><g id="e"/><g id="f"/><g id="g"/><g id="h"/><g id="i"/><g id="j"/><g id="k"/><g id="l"/><g id="m"><g><path d="M12,13.25c1.24,0,2.25-1.01,2.25-2.25V3.59c-.71-.22-1.47-.34-2.25-.34s-1.54,.12-2.25,.34v7.41c0,1.24,1.01,2.25,2.25,2.25Zm0-3h0c.42,0,.75,.34,.75,.75s-.33,.75-.75,.75-.75-.34-.75-.75,.33-.75,.75-.75Z"/><path d="M12,18.75c4.27,0,7.75-3.48,7.75-7.75,0-2.91-1.62-5.45-4-6.78v6.78c0,2.07-1.68,3.75-3.75,3.75s-3.75-1.68-3.75-3.75V4.22c-2.38,1.32-4,3.86-4,6.78,0,4.27,3.48,7.75,7.75,7.75Z"/><path d="M20.78,18.75l-1.77-1.74c-1.7,1.98-4.21,3.24-7.01,3.24s-5.32-1.26-7.01-3.24l-1.77,1.74c-.51,.5-.66,1.25-.39,1.91s.91,1.09,1.62,1.09h15.11c.71,0,1.35-.43,1.62-1.09s.12-1.41-.39-1.91Z"/></g></g><g id="n"/><g id="o"/><g id="p"/><g id="q"/><g id="r"/><g id="s"/><g id="t"/><g id="u"/></svg>