<?xml version="1.0" encoding="UTF-8"?><svg xmlns="http://www.w3.org/2000/svg" viewBox="0 0 24 24"><g id="a"/><g id="b"/><g id="c"/><g id="d"><g><path d="M17,2.25H7c-2.62,0-4.75,2.13-4.75,4.75v10c0,2.62,2.13,4.75,4.75,4.75h10c2.62,0,4.75-2.13,4.75-4.75V7c0-2.62-2.13-4.75-4.75-4.75Zm3.25,14.75c0,1.79-1.46,3.25-3.25,3.25H7c-1.79,0-3.25-1.46-3.25-3.25V7c0-1.79,1.46-3.25,3.25-3.25h10c1.79,0,3.25,1.46,3.25,3.25v10Z"/><path d="M18.5,10.2c-.79-2.85-3.4-4.95-6.5-4.95-.6,0-1.18,.09-1.74,.24-.02,0-.04,0-.06,.02-2.85,.79-4.95,3.4-4.95,6.5,0,.6,.09,1.18,.23,1.74,0,.02,.01,.04,.02,.06,.79,2.85,3.4,4.95,6.5,4.95,3.72,0,6.75-3.03,6.75-6.75,0-.6-.09-1.18-.24-1.74,0-.02,0-.04-.02-.06Zm-1.55,.12c-.26,.35-.66,.74-1.24,.99-.32,.14-.66,.21-1,.23-.16-.94-.79-1.72-1.65-2.08,0-.61-.12-1.2-.36-1.76-.16-.37-.36-.67-.56-.94,2.25,.05,4.13,1.53,4.82,3.56Zm-4.95,2.93c-.69,0-1.25-.56-1.25-1.25s.56-1.25,1.25-1.25,1.25,.56,1.25,1.25-.56,1.25-1.25,1.25Zm-1.68-6.2c.35,.26,.74,.66,.99,1.24,.14,.32,.19,.66,.21,1-.94,.16-1.71,.8-2.06,1.65-.61,0-1.2,.12-1.75,.36-.37,.16-.67,.36-.94,.56,.05-2.25,1.53-4.13,3.55-4.82Zm-3.27,6.63c.26-.35,.66-.74,1.24-.99,.32-.14,.65-.21,1-.23,.16,.94,.79,1.72,1.65,2.08,0,.61,.12,1.2,.36,1.76,.16,.37,.36,.67,.56,.94-2.25-.05-4.13-1.53-4.82-3.56Zm6.63,3.27c-.35-.26-.74-.66-.99-1.24-.14-.32-.19-.66-.21-1,.94-.16,1.71-.8,2.06-1.65,.61,0,1.19-.12,1.76-.36,.37-.16,.67-.36,.94-.56-.05,2.25-1.53,4.13-3.55,4.82Z"/></g></g><g id="e"/><g id="f"/><g id="g"/><g id="h"/><g id="i"/><g id="j"/><g id="k"/><g id="l"/><g id="m"/><g id="n"/><g id="o"/><g id="p"/><g id="q"/><g id="r"/><g id="s"/><g id="t"/><g id="u"/></svg>