<?xml version="1.0" encoding="UTF-8"?><svg xmlns="http://www.w3.org/2000/svg" viewBox="0 0 24 24"><g id="a"/><g id="b"/><g id="c"/><g id="d"/><g id="e"/><g id="f"/><g id="g"/><g id="h"><path d="M19.81,15.92c.6-1.18,.94-2.51,.94-3.92,0-.78-.11-1.54-.31-2.26,0-.03-.01-.05-.02-.07-.15-.55-.36-1.09-.61-1.59l1.13-1.13c1.07-1.07,1.07-2.82,0-3.89s-2.82-1.07-3.89,0l-1.13,1.13c-1.18-.6-2.51-.94-3.92-.94-.78,0-1.54,.11-2.26,.31-.03,0-.05,.01-.08,.02-.55,.15-1.08,.36-1.59,.61l-1.13-1.13c-1.07-1.07-2.82-1.07-3.89,0s-1.07,2.82,0,3.89l1.13,1.13c-.6,1.18-.94,2.51-.94,3.92,0,.78,.11,1.54,.31,2.26,0,.03,.01,.05,.02,.07,.15,.55,.36,1.09,.61,1.59l-1.13,1.13c-1.07,1.07-1.07,2.82,0,3.89,.54,.54,1.24,.8,1.94,.8s1.41-.27,1.94-.8l1.13-1.13c1.18,.6,2.51,.94,3.92,.94s2.74-.34,3.92-.94l1.13,1.13c.54,.54,1.24,.8,1.94,.8s1.41-.27,1.94-.8c1.07-1.07,1.07-2.82,0-3.89l-1.13-1.13Zm-5.58,2.97c-.53-.36-1.15-.94-1.54-1.86-.23-.53-.34-1.08-.34-1.66,1.33-.14,2.42-1.03,2.86-2.24,.06,0,.11,.01,.17,.01,.78,0,1.54-.15,2.25-.46,.66-.28,1.18-.65,1.6-1.05,0,.12,.02,.24,.02,.36,0,3.22-2.11,5.95-5.02,6.89Zm-7.86-7.58c-.66,.28-1.18,.65-1.6,1.05,0-.12-.02-.24-.02-.36,0-3.22,2.11-5.95,5.02-6.89,.53,.36,1.15,.94,1.54,1.86,.23,.53,.34,1.08,.34,1.66-1.33,.14-2.42,1.02-2.86,2.24-.84-.02-1.65,.12-2.42,.45Zm3.73,.46s0-.01,0-.02c0,0,0-.02,0-.03,.13-.93,.93-1.64,1.89-1.64,1.06,0,1.92,.86,1.92,1.92,0,.08-.01,.16-.02,.23h0s0,.03,0,.03c-.13,.93-.92,1.65-1.89,1.65-.08,0-.16-.01-.24-.02h0s0,0-.01,0c-.93-.13-1.66-.92-1.66-1.89,0-.08,.01-.15,.02-.23Zm8.01-7.65c.49-.49,1.28-.49,1.77,0,.49,.49,.49,1.28,0,1.77l-.89,.89c-.5-.67-1.1-1.27-1.77-1.77l.89-.89Zm.78,5.65c-.36,.53-.94,1.15-1.86,1.54-.53,.23-1.08,.34-1.66,.34-.14-1.33-1.03-2.42-2.24-2.86,.02-.84-.12-1.65-.45-2.42-.28-.66-.65-1.18-1.05-1.6,.12,0,.24-.02,.36-.02,3.22,0,5.95,2.11,6.89,5.02ZM4.12,5.88c-.49-.49-.49-1.28,0-1.77,.49-.49,1.28-.49,1.77,0l.89,.89c-.67,.5-1.27,1.1-1.77,1.77l-.89-.89Zm1.77,14c-.49,.49-1.28,.49-1.77,0-.49-.49-.49-1.28,0-1.77l.89-.89c.5,.67,1.1,1.27,1.77,1.77l-.89,.89Zm-.78-5.65c.36-.53,.94-1.15,1.86-1.54,.53-.23,1.08-.34,1.66-.34,.14,1.32,1.02,2.42,2.24,2.85-.02,.84,.12,1.65,.45,2.42,.28,.66,.65,1.18,1.05,1.6-.12,0-.24,.02-.36,.02-3.22,0-5.95-2.11-6.89-5.02Zm14.78,5.65c-.49,.49-1.28,.49-1.77,0l-.89-.89c.67-.5,1.27-1.1,1.77-1.77l.89,.89c.49,.49,.49,1.28,0,1.77Z"/></g><g id="i"/><g id="j"/><g id="k"/><g id="l"/><g id="m"/><g id="n"/><g id="o"/><g id="p"/><g id="q"/><g id="r"/><g id="s"/><g id="t"/><g id="u"/></svg>