<?xml version="1.0" encoding="UTF-8"?><svg xmlns="http://www.w3.org/2000/svg" viewBox="0 0 24 24"><g id="a"/><g id="b"/><g id="c"><g><path d="M20.82,10.24l.41-.41c.33-.33,.51-.78,.51-1.24v-1.59c0-.96-.79-1.75-1.75-1.75h-3.59c-.46,0-.91,.19-1.24,.51l-.41,.41s-.11,.07-.18,.07h-5.17c-.07,0-.13-.03-.18-.07l-.41-.41c-.33-.33-.78-.51-1.24-.51h-3.59c-.96,0-1.75,.79-1.75,1.75v1.59c0,.46,.19,.91,.51,1.24l.41,.41s.07,.11,.07,.18v1.17c0,.07-.03,.13-.07,.18l-.41,.41c-.33,.33-.51,.78-.51,1.24v.59c0,.96,.79,1.75,1.75,1.75H20c.96,0,1.75-.79,1.75-1.75v-.59c0-.46-.19-.91-.51-1.24l-.41-.41s-.07-.11-.07-.18v-1.17c0-.07,.03-.13,.07-.18Zm-.57-1.65c0,.07-.03,.13-.07,.18l-.41,.41c-.33,.33-.51,.78-.51,1.24v1.17c0,.46,.19,.91,.51,1.24l.41,.41s.07,.11,.07,.18v.59c0,.14-.11,.25-.25,.25H4c-.14,0-.25-.11-.25-.25v-.59c0-.07,.03-.13,.07-.18l.41-.41c.33-.33,.51-.78,.51-1.24v-1.17c0-.46-.19-.91-.51-1.24l-.41-.41s-.07-.11-.07-.18v-1.59c0-.14,.11-.25,.25-.25h3.59c.07,0,.13,.03,.18,.07l.41,.41c.33,.33,.78,.51,1.24,.51h5.17c.46,0,.91-.19,1.24-.51l.41-.41s.11-.07,.18-.07h3.59c.14,0,.25,.11,.25,.25v1.59Z"/><path d="M12,17.25H4c-.41,0-.75,.34-.75,.75s.34,.75,.75,.75H12c.41,0,.75-.34,.75-.75s-.34-.75-.75-.75Z"/><path d="M20,17.25h-4c-.41,0-.75,.34-.75,.75s.34,.75,.75,.75h4c.41,0,.75-.34,.75-.75s-.34-.75-.75-.75Z"/><path d="M16.47,8.47l-.71,.71s-.11,.07-.18,.07h-7.17c-.07,0-.13-.03-.18-.07l-.71-.71c-.29-.29-.77-.29-1.06,0s-.29,.77,0,1.06l.71,.71c.33,.33,.78,.51,1.24,.51h7.17c.46,0,.91-.19,1.24-.51l.71-.71c.29-.29,.29-.77,0-1.06s-.77-.29-1.06,0Z"/></g></g><g id="d"/><g id="e"/><g id="f"/><g id="g"/><g id="h"/><g id="i"/><g id="j"/><g id="k"/><g id="l"/><g id="m"/><g id="n"/><g id="o"/><g id="p"/><g id="q"/><g id="r"/><g id="s"/><g id="t"/><g id="u"/></svg>