<?xml version="1.0" encoding="UTF-8"?><svg xmlns="http://www.w3.org/2000/svg" viewBox="0 0 24 24"><g id="a"/><g id="b"/><g id="c"/><g id="d"/><g id="e"><g><path d="M21.72,13.84s0-.05,0-.08l-2.32-6.95c-.51-1.53-1.94-2.56-3.56-2.56h-7.68c-1.62,0-3.05,1.03-3.56,2.56l-2.32,6.95s0,.05,0,.08c-.01,.05-.03,.1-.03,.16v3c0,2.07,1.68,3.75,3.75,3.75h12c2.07,0,3.75-1.68,3.75-3.75v-3c0-.06-.02-.1-.03-.16ZM6.03,7.29c.31-.92,1.16-1.54,2.13-1.54h7.68c.97,0,1.83,.62,2.13,1.54l1.99,5.96H4.04l1.99-5.96Zm14.22,9.71c0,1.24-1.01,2.25-2.25,2.25H6c-1.24,0-2.25-1.01-2.25-2.25v-2.25H20.25v2.25Z"/><path d="M6,17.75h4c.41,0,.75-.34,.75-.75s-.34-.75-.75-.75H6c-.41,0-.75,.34-.75,.75s.34,.75,.75,.75Z"/></g></g><g id="f"/><g id="g"/><g id="h"/><g id="i"/><g id="j"/><g id="k"/><g id="l"/><g id="m"/><g id="n"/><g id="o"/><g id="p"/><g id="q"/><g id="r"/><g id="s"/><g id="t"/><g id="u"/></svg>