<?xml version="1.0" encoding="UTF-8"?><svg xmlns="http://www.w3.org/2000/svg" viewBox="0 0 24 24"><g id="a"/><g id="b"/><g id="c"/><g id="d"/><g id="e"/><g id="f"/><g id="g"/><g id="h"/><g id="i"/><g id="j"/><g id="k"/><g id="l"/><g id="m"/><g id="n"><g><path d="M19,5.25h-2.25v-1.75c0-.69-.56-1.25-1.25-1.25h-7c-.69,0-1.25,.56-1.25,1.25v1.75h-2.25c-.41,0-.75,.34-.75,.75s.34,.75,.75,.75h.25v10.25c0,.41,.34,.75,.75,.75s.75-.34,.75-.75v-1.28c.08,.01,.16,.03,.25,.03h1.46l.6,1.8c.24,.72,.91,1.2,1.66,1.2h.58c-.03,.08-.05,.16-.05,.25v2c0,.41,.34,.75,.75,.75s.75-.34,.75-.75v-2c0-.09-.02-.17-.05-.25h.58c.75,0,1.42-.48,1.66-1.2l.6-1.8h1.46c.09,0,.17-.01,.25-.03v1.28c0,.41,.34,.75,.75,.75s.75-.34,.75-.75V6.75h.25c.41,0,.75-.34,.75-.75s-.34-.75-.75-.75Zm-10.25-1.5h6.5v1.5h-6.5v-1.5Zm4.77,13.33c-.03,.1-.13,.17-.24,.17h-2.56c-.11,0-.2-.07-.24-.17l-.44-1.33h3.92l-.44,1.33Zm3.73-3.08c0,.14-.11,.25-.25,.25H7c-.14,0-.25-.11-.25-.25V6.75h10.5v7.25Z"/><path d="M14,9.25h-4c-.41,0-.75,.34-.75,.75s.34,.75,.75,.75h4c.41,0,.75-.34,.75-.75s-.34-.75-.75-.75Z"/></g></g><g id="o"/><g id="p"/><g id="q"/><g id="r"/><g id="s"/><g id="t"/><g id="u"/></svg>