<?xml version="1.0" encoding="UTF-8"?><svg xmlns="http://www.w3.org/2000/svg" viewBox="0 0 24 24"><g id="a"/><g id="b"/><g id="c"/><g id="d"/><g id="e"/><g id="f"/><g id="g"/><g id="h"/><g id="i"/><g id="j"/><g id="k"/><g id="l"/><g id="m"/><g id="n"/><g id="o"/><g id="p"/><g id="q"/><g id="r"/><g id="s"/><g id="t"><path d="M21.47,4.41c-.18-.14-.41-.2-.63-.15-5.79,1.3-11.88,1.3-17.67,0-.22-.05-.46,0-.63,.15-.18,.14-.28,.36-.28,.59v12c0,.23,.1,.44,.28,.59,.18,.14,.41,.2,.63,.15,2-.45,4.04-.73,6.09-.87v1.39h-1.25c-.41,0-.75,.34-.75,.75s.34,.75,.75,.75h8c.41,0,.75-.34,.75-.75s-.34-.75-.75-.75h-1.25v-1.39c2.05,.14,4.08,.42,6.09,.87,.05,.01,.11,.02,.16,.02,.17,0,.33-.06,.47-.16,.18-.14,.28-.36,.28-.59V5c0-.23-.1-.44-.28-.59Zm-8.22,13.84h-2.5v-1.46c.83-.03,1.67-.03,2.5,0v1.46Zm7-2.18c-1.96-.39-3.95-.64-5.94-.75-.09-.04-.2-.07-.31-.07-.08,0-.15,.02-.22,.04-.59-.03-1.19-.04-1.78-.04s-1.19,.02-1.78,.04c-.07-.02-.14-.04-.22-.04-.11,0-.21,.03-.31,.07-2,.11-3.98,.36-5.94,.75V5.93c5.43,1.09,11.07,1.09,16.5,0v10.15Z"/></g><g id="u"/></svg>