<?xml version="1.0" encoding="UTF-8"?><svg xmlns="http://www.w3.org/2000/svg" viewBox="0 0 24 24"><g id="a"/><g id="b"/><g id="c"/><g id="d"/><g id="e"/><g id="f"/><g id="g"/><g id="h"/><g id="i"/><g id="j"/><g id="k"/><g id="l"/><g id="m"/><g id="n"/><g id="o"/><g id="p"/><g id="q"><g><path d="M17.93,3.48l-2.03-1.22c-.55-.33-1.21-.34-1.76-.02-.56,.31-.89,.88-.89,1.52v1.07c-.81-.28-1.69-.27-2.5,0v-1.08c0-.64-.33-1.21-.89-1.52-.56-.32-1.22-.31-1.76,.02l-2.03,1.22c-1.12,.67-1.82,1.91-1.82,3.22v7.3c0,4.27,3.48,7.75,7.75,7.75s7.75-3.48,7.75-7.75V6.7c0-1.31-.7-2.54-1.82-3.22Zm-4.68,3.02v1.5c0,.69-.56,1.25-1.25,1.25s-1.25-.56-1.25-1.25v-1.5c.74-.5,1.76-.49,2.5,0Zm5,7.5c0,3.45-2.8,6.25-6.25,6.25s-6.25-2.8-6.25-6.25V6.7c0-.79,.42-1.53,1.09-1.93l2.03-1.22s.09-.04,.13-.04c.05,0,.1,.02,.12,.03,.05,.03,.13,.09,.13,.22v4.23c0,1.52,1.23,2.75,2.75,2.75s2.75-1.23,2.75-2.75V3.77c0-.13,.08-.19,.13-.22s.14-.06,.25,0l2.03,1.22c.67,.4,1.09,1.14,1.09,1.93v7.3Z"/><path d="M13,16.25h-2c-.41,0-.75,.34-.75,.75s.34,.75,.75,.75h2c.41,0,.75-.34,.75-.75s-.34-.75-.75-.75Z"/></g></g><g id="r"/><g id="s"/><g id="t"/><g id="u"/></svg>