<?xml version="1.0" encoding="UTF-8"?><svg xmlns="http://www.w3.org/2000/svg" viewBox="0 0 24 24"><g id="a"/><g id="b"/><g id="c"/><g id="d"/><g id="e"/><g id="f"/><g id="g"/><g id="h"/><g id="i"/><g id="j"><g><path d="M20,7.25H4c-.96,0-1.75,.79-1.75,1.75v6c0,.96,.79,1.75,1.75,1.75H20c.96,0,1.75-.79,1.75-1.75v-6c0-.96-.79-1.75-1.75-1.75Zm.25,7.75c0,.14-.11,.25-.25,.25H4c-.14,0-.25-.11-.25-.25v-6c0-.14,.11-.25,.25-.25H20c.14,0,.25,.11,.25,.25v6Z"/><path d="M9,18.25H4c-.41,0-.75,.34-.75,.75s.34,.75,.75,.75h5c.41,0,.75-.34,.75-.75s-.34-.75-.75-.75Z"/><path d="M20,18.25h-7c-.41,0-.75,.34-.75,.75s.34,.75,.75,.75h7c.41,0,.75-.34,.75-.75s-.34-.75-.75-.75Z"/><path d="M6,10.25c-.41,0-.75,.34-.75,.75v2c0,.41,.34,.75,.75,.75s.75-.34,.75-.75v-2c0-.41-.34-.75-.75-.75Z"/><path d="M9,10.25c-.41,0-.75,.34-.75,.75v2c0,.41,.34,.75,.75,.75s.75-.34,.75-.75v-2c0-.41-.34-.75-.75-.75Z"/><path d="M12,10.25c-.41,0-.75,.34-.75,.75v2c0,.41,.34,.75,.75,.75s.75-.34,.75-.75v-2c0-.41-.34-.75-.75-.75Z"/><path d="M15.53,10.47c-.07-.07-.15-.12-.24-.16-.28-.12-.61-.05-.82,.16-.07,.07-.12,.15-.16,.24-.04,.09-.06,.19-.06,.29s.02,.2,.06,.29c.03,.09,.09,.17,.16,.24,.14,.14,.33,.22,.53,.22s.39-.08,.53-.22c.07-.07,.13-.15,.16-.24,.04-.09,.06-.19,.06-.29s-.02-.2-.06-.29-.09-.17-.16-.24Z"/><path d="M18.53,10.47c-.07-.07-.15-.12-.24-.16-.28-.12-.61-.05-.82,.16-.07,.07-.12,.15-.16,.24-.04,.09-.06,.19-.06,.29s.02,.2,.06,.29c.03,.09,.09,.17,.16,.24,.07,.07,.15,.13,.24,.16,.09,.04,.19,.06,.29,.06,.2,0,.39-.08,.53-.22,.07-.07,.13-.15,.16-.24,.04-.09,.06-.19,.06-.29s-.02-.2-.06-.29c-.03-.09-.09-.17-.16-.24Z"/></g></g><g id="k"/><g id="l"/><g id="m"/><g id="n"/><g id="o"/><g id="p"/><g id="q"/><g id="r"/><g id="s"/><g id="t"/><g id="u"/></svg>