<?xml version="1.0" encoding="UTF-8"?><svg xmlns="http://www.w3.org/2000/svg" viewBox="0 0 24 24"><g id="a"/><g id="b"/><g id="c"/><g id="d"/><g id="e"/><g id="f"/><g id="g"/><g id="h"/><g id="i"/><g id="j"/><g id="k"/><g id="l"/><g id="m"/><g id="n"/><g id="o"/><g id="p"/><g id="q"/><g id="r"/><g id="s"/><g id="t"/><g id="u"><path d="M19.94,6.88l-3.83-3.83c-.52-.52-1.21-.81-1.94-.81H5c-1.52,0-2.75,1.23-2.75,2.75v14c0,1.52,1.23,2.75,2.75,2.75h13c1.52,0,2.75-1.23,2.75-2.75V8.83c0-.73-.29-1.43-.81-1.94Zm-7.69-3.13v3.25c0,.14-.11,.25-.25,.25H7c-.14,0-.25-.11-.25-.25V3.75h5.5ZM6.75,20.25v-4.25c0-.14,.11-.25,.25-.25H15c.14,0,.25,.11,.25,.25v4.25H6.75Zm12.5-1.25c0,.69-.56,1.25-1.25,1.25h-1.25v-4.25c0-.96-.79-1.75-1.75-1.75H7c-.96,0-1.75,.79-1.75,1.75v4.25h-.25c-.69,0-1.25-.56-1.25-1.25V5c0-.69,.56-1.25,1.25-1.25h.25v3.25c0,.96,.79,1.75,1.75,1.75h5c.96,0,1.75-.79,1.75-1.75V3.75h.42c.33,0,.65,.13,.88,.37l3.83,3.83c.24,.24,.37,.55,.37,.88v10.17Z"/></g></svg>