<?xml version="1.0" encoding="UTF-8"?><svg xmlns="http://www.w3.org/2000/svg" viewBox="0 0 24 24"><g id="a"/><g id="b"/><g id="c"/><g id="d"/><g id="e"/><g id="f"/><g id="g"/><g id="h"/><g id="i"/><g id="j"/><g id="k"><path d="M21.02,8.97c-.45-.33-1.04-.42-1.58-.24l-1.39,.46c-.5-.57-1.23-.94-2.05-.94H8c-.82,0-1.55,.37-2.05,.94l-1.39-.46c-.53-.18-1.12-.09-1.58,.24-.46,.33-.73,.86-.73,1.42v1.89c0,.75,.48,1.42,1.2,1.66l1.86,.62c.26,1.25,1.37,2.19,2.69,2.19h1.38c.67,0,1.27-.37,1.57-.97l.45-.89c.04-.08,.13-.14,.22-.14h.76c.1,0,.18,.05,.22,.14l.45,.89c.3,.6,.9,.97,1.57,.97h1.38c1.32,0,2.43-.94,2.69-2.19l1.86-.62c.71-.24,1.2-.91,1.2-1.66v-1.89c0-.56-.27-1.09-.73-1.42ZM3.75,12.28v-1.89c0-.11,.07-.17,.1-.2,.04-.03,.12-.07,.23-.03l1.22,.41c-.02,.15-.04,.29-.04,.44v1.96l-1.33-.44c-.1-.03-.17-.13-.17-.24Zm13.5,1.72c0,.69-.56,1.25-1.25,1.25h-1.38c-.1,0-.18-.05-.22-.14l-.45-.89c-.3-.6-.9-.97-1.57-.97h-.76c-.67,0-1.27,.37-1.57,.97l-.45,.89c-.04,.08-.13,.14-.22,.14h-1.38c-.69,0-1.25-.56-1.25-1.25v-3c0-.69,.56-1.25,1.25-1.25h8c.69,0,1.25,.56,1.25,1.25v3Zm3-1.72c0,.11-.07,.2-.17,.24l-1.33,.44v-1.96c0-.15-.02-.3-.04-.44l1.22-.41c.11-.04,.19,0,.23,.03,.04,.03,.1,.09,.1,.2v1.89Z"/></g><g id="l"/><g id="m"/><g id="n"/><g id="o"/><g id="p"/><g id="q"/><g id="r"/><g id="s"/><g id="t"/><g id="u"/></svg>