<?xml version="1.0" encoding="UTF-8"?><svg xmlns="http://www.w3.org/2000/svg" viewBox="0 0 24 24"><g id="a"/><g id="b"/><g id="c"/><g id="d"/><g id="e"/><g id="f"/><g id="g"/><g id="h"/><g id="i"><g><path d="M16,2.25H8c-1.52,0-2.75,1.23-2.75,2.75v14c0,1.52,1.23,2.75,2.75,2.75h8c1.52,0,2.75-1.23,2.75-2.75V5c0-1.52-1.23-2.75-2.75-2.75Zm1.25,16.75c0,.69-.56,1.25-1.25,1.25H8c-.69,0-1.25-.56-1.25-1.25V5c0-.69,.56-1.25,1.25-1.25h8c.69,0,1.25,.56,1.25,1.25v14Z"/><path d="M12,11.59c-2.07,0-3.75,1.68-3.75,3.75s1.68,3.75,3.75,3.75,3.75-1.68,3.75-3.75-1.68-3.75-3.75-3.75Zm0,6c-1.24,0-2.25-1.01-2.25-2.25s1.01-2.25,2.25-2.25,2.25,1.01,2.25,2.25-1.01,2.25-2.25,2.25Z"/><path d="M12,10.43c1.52,0,2.75-1.23,2.75-2.75s-1.23-2.75-2.75-2.75-2.75,1.23-2.75,2.75,1.23,2.75,2.75,2.75Zm0-4c.69,0,1.25,.56,1.25,1.25s-.56,1.25-1.25,1.25-1.25-.56-1.25-1.25,.56-1.25,1.25-1.25Z"/><path d="M12.53,14.81c-.07-.07-.15-.12-.24-.16-.28-.12-.61-.05-.82,.16-.07,.07-.12,.15-.16,.24-.04,.09-.06,.19-.06,.29s.02,.2,.06,.29c.03,.09,.09,.17,.16,.24,.07,.07,.15,.13,.24,.16,.09,.04,.19,.06,.29,.06,.2,0,.39-.08,.53-.22,.07-.07,.13-.15,.16-.24,.04-.09,.06-.19,.06-.29s-.02-.2-.06-.29c-.03-.09-.09-.17-.16-.24Z"/></g></g><g id="j"/><g id="k"/><g id="l"/><g id="m"/><g id="n"/><g id="o"/><g id="p"/><g id="q"/><g id="r"/><g id="s"/><g id="t"/><g id="u"/></svg>