<?xml version="1.0" encoding="UTF-8"?><svg xmlns="http://www.w3.org/2000/svg" viewBox="0 0 24 24"><g id="a"/><g id="b"/><g id="c"/><g id="d"/><g id="e"/><g id="f"><path d="M15.75,7.43V3.5c0-.69-.56-1.25-1.25-1.25h-5c-.69,0-1.25,.56-1.25,1.25v3.93c-.59,.28-1,.88-1,1.57v5c0,.76,.49,1.41,1.17,1.64l.64,1.91c.24,.72,.91,1.2,1.66,1.2h.53v2.25c0,.41,.34,.75,.75,.75s.75-.34,.75-.75v-2.25h.53c.75,0,1.42-.48,1.66-1.2l.64-1.91c.68-.24,1.17-.88,1.17-1.64v-5c0-.7-.41-1.29-1-1.57Zm-7,6.57v-5c0-.14,.11-.25,.25-.25h6c.14,0,.25,.11,.25,.25v5c0,.14-.11,.25-.25,.25h-6c-.14,0-.25-.11-.25-.25Zm1-10.25h4.5v3.5h-4.5V3.75Zm3.77,13.33c-.03,.1-.13,.17-.24,.17h-2.56c-.11,0-.2-.07-.24-.17l-.44-1.33h3.92l-.44,1.33Z"/></g><g id="g"/><g id="h"/><g id="i"/><g id="j"/><g id="k"/><g id="l"/><g id="m"/><g id="n"/><g id="o"/><g id="p"/><g id="q"/><g id="r"/><g id="s"/><g id="t"/><g id="u"/></svg>