<?xml version="1.0" encoding="UTF-8"?><svg xmlns="http://www.w3.org/2000/svg" viewBox="0 0 24 24"><g id="a"/><g id="b"><g><path d="M19,5.25H5c-1.52,0-2.75,1.23-2.75,2.75v8c0,1.52,1.23,2.75,2.75,2.75h14c1.52,0,2.75-1.23,2.75-2.75V8c0-1.52-1.23-2.75-2.75-2.75Zm1.25,10.75c0,.69-.56,1.25-1.25,1.25H5c-.69,0-1.25-.56-1.25-1.25V8c0-.69,.56-1.25,1.25-1.25h14c.69,0,1.25,.56,1.25,1.25v8Z"/><path d="M9,8.25c-2.07,0-3.75,1.68-3.75,3.75s1.68,3.75,3.75,3.75,3.75-1.68,3.75-3.75-1.68-3.75-3.75-3.75Zm0,6c-1.24,0-2.25-1.01-2.25-2.25s1.01-2.25,2.25-2.25,2.25,1.01,2.25,2.25-1.01,2.25-2.25,2.25Z"/><path d="M18,13.25h-2c-.41,0-.75,.34-.75,.75s.34,.75,.75,.75h2c.41,0,.75-.34,.75-.75s-.34-.75-.75-.75Z"/><path d="M18,9.25h-2c-.41,0-.75,.34-.75,.75s.34,.75,.75,.75h2c.41,0,.75-.34,.75-.75s-.34-.75-.75-.75Z"/></g></g><g id="c"/><g id="d"/><g id="e"/><g id="f"/><g id="g"/><g id="h"/><g id="i"/><g id="j"/><g id="k"/><g id="l"/><g id="m"/><g id="n"/><g id="o"/><g id="p"/><g id="q"/><g id="r"/><g id="s"/><g id="t"/><g id="u"/></svg>