<?xml version="1.0" encoding="UTF-8"?><svg xmlns="http://www.w3.org/2000/svg" viewBox="0 0 24 24"><g id="a"/><g id="b"/><g id="c"/><g id="d"/><g id="e"/><g id="f"/><g id="g"/><g id="h"/><g id="i"/><g id="j"/><g id="k"/><g id="l"/><g id="m"/><g id="n"/><g id="o"/><g id="p"/><g id="q"/><g id="r"><path d="M15.75,8.43V3.5c0-.69-.56-1.25-1.25-1.25h-6c-.69,0-1.25,.56-1.25,1.25v4.93c-.59,.28-1,.88-1,1.57v4c0,.76,.49,1.41,1.17,1.64l.64,1.91c.19,.56,.64,.97,1.19,1.12v2.32c0,.41,.34,.75,.75,.75h3c.41,0,.75-.34,.75-.75v-2.32c.55-.15,1-.56,1.19-1.12l.64-1.91c.68-.24,1.17-.88,1.17-1.64v-4c0-.7-.41-1.29-1-1.57ZM7.75,14v-4c0-.14,.11-.25,.25-.25h7c.14,0,.25,.11,.25,.25v4c0,.14-.11,.25-.25,.25h-7c-.14,0-.25-.11-.25-.25Zm1-10.25h5.5v4.5h-5.5V3.75Zm3.5,16.5h-1.5v-1.5h1.5v1.5Zm1.27-3.17c-.03,.1-.13,.17-.24,.17h-3.56c-.11,0-.2-.07-.24-.17l-.44-1.33h4.92l-.44,1.33Z"/></g><g id="s"/><g id="t"/><g id="u"/></svg>