<?xml version="1.0" encoding="UTF-8"?><svg xmlns="http://www.w3.org/2000/svg" viewBox="0 0 24 24"><g id="a"/><g id="b"/><g id="c"/><g id="d"/><g id="e"/><g id="f"/><g id="g"/><g id="h"/><g id="i"/><g id="j"/><g id="k"/><g id="l"/><g id="m"><g><path d="M20.78,18.75l-2.84-2.79c1.13-1.35,1.81-3.08,1.81-4.96,0-4.27-3.48-7.75-7.75-7.75s-7.75,3.48-7.75,7.75c0,1.89,.68,3.62,1.81,4.96l-2.84,2.79c-.51,.5-.66,1.25-.39,1.91s.91,1.09,1.62,1.09h15.11c.71,0,1.35-.43,1.62-1.09s.12-1.41-.39-1.91ZM14.25,5.18v5.82c0,1.24-1.01,2.25-2.25,2.25s-2.25-1.01-2.25-2.25V5.18c.7-.27,1.46-.43,2.25-.43s1.55,.15,2.25,.43Zm-6,.84v4.99c0,2.07,1.68,3.75,3.75,3.75s3.75-1.68,3.75-3.75V6.01c1.51,1.14,2.5,2.95,2.5,4.99,0,3.45-2.8,6.25-6.25,6.25s-6.25-2.8-6.25-6.25c0-2.04,.99-3.85,2.5-4.99Zm11.54,14.08c-.02,.06-.08,.16-.23,.16H4.45c-.15,0-.21-.1-.23-.16-.02-.06-.05-.17,.06-.27l2.86-2.8c1.33,1.08,3.03,1.73,4.87,1.73s3.54-.65,4.88-1.73l2.86,2.81c.1,.1,.08,.21,.06,.27Z"/><path d="M12.02,11.75c.42,0,.75-.34,.75-.75s-.33-.75-.75-.75h0c-.41,0-.75,.34-.75,.75s.34,.75,.75,.75Z"/></g></g><g id="n"/><g id="o"/><g id="p"/><g id="q"/><g id="r"/><g id="s"/><g id="t"/><g id="u"/></svg>